# xmcd
#
# Track frame offsets: 
#        150
#        6427
#        21777
#        32112
#        45780
#        62432
#        80587
#        93897
#        109755
#        125375
#        139842
#        150817
#        163787
#        176532
#
# Disc length: 2416 seconds
#
# Revision: 4
# Processed by: cddbd v1.5.2PL0 Copyright (c) Steve Scherf et al.
# Submitted via: ExactAudioCopy v0.99pb5
#
DISCID=9f096e0e
DTITLE=Jim Belushi and Dan Aykroyd - Have Love Will Travel
DYEAR=2003
DGENRE=Rock
TTITLE0=Skybox Ball Room Pump
TTITLE1=Have Love Will Travel
TTITLE2=Dig Myself A Hole
TTITLE3=Time Won't Let Me
TTITLE4=Polk Salad Annie
TTITLE5=300 Pound Of Joy
TTITLE6=All She Wants To Do Is Rock
TTITLE7=Con't Get Out Of It
TTITLE8=Greenbacks
TTITLE9=Truth At The Time 
TTITLE10=Cadillac Man
TTITLE11=Swinging Party
TTITLE12=Driving Wheel
TTITLE13=Skybox Ballroom Pump(Reprise)
EXTD=YEAR: 2003
EXTT0=
EXTT1=
EXTT2=
EXTT3=
EXTT4=
EXTT5=
EXTT6=
EXTT7=
EXTT8=
EXTT9=
EXTT10=
EXTT11=
EXTT12=
EXTT13=
PLAYORDER=
